<svg xmlns="http://www.w3.org/2000/svg" xmlns:xlink="http://www.w3.org/1999/xlink" contentStyleType="text/css" data-diagram-type="SEQUENCE" height="457px" preserveAspectRatio="none" style="width:586px;height:457px;background:#1A1B26;" version="1.1" viewBox="0 0 586 457" width="586px" zoomAndPan="magnify"><title>&lt;b&gt;Aegis &#8212; Sequence Diagram&lt;/b&gt;</title><defs/><g><rect fill="#1A1B26" height="457" style="stroke:none;stroke-width:1;" width="586" x="0" y="0"/><text fill="#E6E9EF" font-family="sans-serif" font-size="14" font-weight="bold" lengthAdjust="spacing" textLength="215.7559" x="183.7717" y="27.9951">Aegis &#8212; Sequence Diagram</text><g><title>M..teri</title><rect fill="#000000" fill-opacity="0.00000" height="253.1797" width="8" x="33.7109" y="120.9219"/><line style="stroke:#7AA2F7;stroke-width:0.5;stroke-dasharray:5,5;" x1="37" x2="37" y1="120.9219" y2="374.1016"/></g><g><title>Gereksinim</title><rect fill="#000000" fill-opacity="0.00000" height="253.1797" width="8" x="170.2036" y="120.9219"/><line style="stroke:#7AA2F7;stroke-width:0.5;stroke-dasharray:5,5;" x1="173.7622" x2="173.7622" y1="120.9219" y2="374.1016"/></g><g><title>..z.m</title><rect fill="#000000" fill-opacity="0.00000" height="253.1797" width="8" x="298.9692" y="120.9219"/><line style="stroke:#7AA2F7;stroke-width:0.5;stroke-dasharray:5,5;" x1="302.4263" x2="302.4263" y1="120.9219" y2="374.1016"/></g><g><title>Geli.tirici</title><rect fill="#000000" fill-opacity="0.00000" height="253.1797" width="8" x="434.2021" y="120.9219"/><line style="stroke:#7AA2F7;stroke-width:0.5;stroke-dasharray:5,5;" x1="437.9756" x2="437.9756" y1="120.9219" y2="374.1016"/></g><g><title>Kalite</title><rect fill="#000000" fill-opacity="0.00000" height="253.1797" width="8" x="530.7451" y="120.9219"/><line style="stroke:#7AA2F7;stroke-width:0.5;stroke-dasharray:5,5;" x1="534.4287" x2="534.4287" y1="120.9219" y2="374.1016"/></g><g class="participant participant-head" data-participant="U"><text fill="#E6E9EF" font-family="sans-serif" font-size="16" lengthAdjust="spacing" textLength="59.4219" x="5" y="117.1484">M&#252;&#351;teri</text><ellipse cx="37.7109" cy="50.7969" fill="#E0AF68" rx="8" ry="8" style="stroke:#E0AF68;stroke-width:0.5;"/><path d="M37.7109,58.7969 L37.7109,85.7969 M24.7109,66.7969 L50.7109,66.7969 M37.7109,85.7969 L24.7109,100.7969 M37.7109,85.7969 L50.7109,100.7969" fill="none" style="stroke:#E0AF68;stroke-width:0.5;"/></g><g class="participant participant-tail" data-participant="U"><text fill="#E6E9EF" font-family="sans-serif" font-size="16" lengthAdjust="spacing" textLength="59.4219" x="5" y="387.9531">M&#252;&#351;teri</text><ellipse cx="37.7109" cy="400.2266" fill="#E0AF68" rx="8" ry="8" style="stroke:#E0AF68;stroke-width:0.5;"/><path d="M37.7109,408.2266 L37.7109,435.2266 M24.7109,416.2266 L50.7109,416.2266 M37.7109,435.2266 L24.7109,450.2266 M37.7109,435.2266 L50.7109,450.2266" fill="none" style="stroke:#E0AF68;stroke-width:0.5;"/></g><g class="participant participant-head" data-participant="RA"><rect fill="#2B2F40" height="51.25" rx="4" ry="4" style="stroke:#7AA2F7;stroke-width:2;" width="104.8828" x="121.7622" y="68.6719"/><text fill="#E6E9EF" font-family="sans-serif" font-size="16" lengthAdjust="spacing" textLength="90.8828" x="128.7622" y="90.5234">Gereksinim</text><text fill="#E6E9EF" font-family="sans-serif" font-size="16" lengthAdjust="spacing" textLength="58.8359" x="144.7856" y="109.1484">Analisti</text></g><g class="participant participant-tail" data-participant="RA"><rect fill="#2B2F40" height="51.25" rx="4" ry="4" style="stroke:#7AA2F7;stroke-width:2;" width="104.8828" x="121.7622" y="373.1016"/><text fill="#E6E9EF" font-family="sans-serif" font-size="16" lengthAdjust="spacing" textLength="90.8828" x="128.7622" y="394.9531">Gereksinim</text><text fill="#E6E9EF" font-family="sans-serif" font-size="16" lengthAdjust="spacing" textLength="58.8359" x="144.7856" y="413.5781">Analisti</text></g><g class="participant participant-head" data-participant="SA"><rect fill="#2B2F40" height="51.25" rx="4" ry="4" style="stroke:#7AA2F7;stroke-width:2;" width="69.0859" x="268.4263" y="68.6719"/><text fill="#E6E9EF" font-family="sans-serif" font-size="16" lengthAdjust="spacing" textLength="55.0859" x="275.4263" y="90.5234">&#199;&#246;z&#252;m</text><text fill="#E6E9EF" font-family="sans-serif" font-size="16" lengthAdjust="spacing" textLength="54.6641" x="275.6372" y="109.1484">Mimar&#305;</text></g><g class="participant participant-tail" data-participant="SA"><rect fill="#2B2F40" height="51.25" rx="4" ry="4" style="stroke:#7AA2F7;stroke-width:2;" width="69.0859" x="268.4263" y="373.1016"/><text fill="#E6E9EF" font-family="sans-serif" font-size="16" lengthAdjust="spacing" textLength="55.0859" x="275.4263" y="394.9531">&#199;&#246;z&#252;m</text><text fill="#E6E9EF" font-family="sans-serif" font-size="16" lengthAdjust="spacing" textLength="54.6641" x="275.6372" y="413.5781">Mimar&#305;</text></g><g class="participant participant-head" data-participant="DEV"><rect fill="#2B2F40" height="32.625" rx="4" ry="4" style="stroke:#7AA2F7;stroke-width:2;" width="88.4531" x="393.9756" y="87.2969"/><text fill="#E6E9EF" font-family="sans-serif" font-size="16" lengthAdjust="spacing" textLength="74.4531" x="400.9756" y="109.1484">Geli&#351;tirici</text></g><g class="participant participant-tail" data-participant="DEV"><rect fill="#2B2F40" height="32.625" rx="4" ry="4" style="stroke:#7AA2F7;stroke-width:2;" width="88.4531" x="393.9756" y="373.1016"/><text fill="#E6E9EF" font-family="sans-serif" font-size="16" lengthAdjust="spacing" textLength="74.4531" x="400.9756" y="394.9531">Geli&#351;tirici</text></g><g class="participant participant-head" data-participant="QA"><rect fill="#2B2F40" height="51.25" rx="4" ry="4" style="stroke:#7AA2F7;stroke-width:2;" width="84.6328" x="492.4287" y="68.6719"/><text fill="#E6E9EF" font-family="sans-serif" font-size="16" lengthAdjust="spacing" textLength="45.3047" x="512.0928" y="90.5234">Kalite</text><text fill="#E6E9EF" font-family="sans-serif" font-size="16" lengthAdjust="spacing" textLength="70.6328" x="499.4287" y="109.1484">G&#252;vence</text></g><g class="participant participant-tail" data-participant="QA"><rect fill="#2B2F40" height="51.25" rx="4" ry="4" style="stroke:#7AA2F7;stroke-width:2;" width="84.6328" x="492.4287" y="373.1016"/><text fill="#E6E9EF" font-family="sans-serif" font-size="16" lengthAdjust="spacing" textLength="45.3047" x="512.0928" y="394.9531">Kalite</text><text fill="#E6E9EF" font-family="sans-serif" font-size="16" lengthAdjust="spacing" textLength="70.6328" x="499.4287" y="413.5781">G&#252;vence</text></g><g class="message" data-participant-1="U" data-participant-2="RA"><polygon fill="#9ECE6A" points="162.2036,150.3828,172.2036,154.3828,162.2036,158.3828,166.2036,154.3828" style="stroke:#9ECE6A;stroke-width:1;"/><line style="stroke:#9ECE6A;stroke-width:2;" x1="37.7109" x2="168.2036" y1="154.3828" y2="154.3828"/><text fill="#C0CAF5" font-family="sans-serif" font-size="15" lengthAdjust="spacing" textLength="112.4927" x="44.7109" y="148.8452">Fikir (do&#287;al dil)</text></g><g class="message" data-participant-1="RA" data-participant-2="SA"><polygon fill="#9ECE6A" points="290.9692,181.8438,300.9692,185.8438,290.9692,189.8438,294.9692,185.8438" style="stroke:#9ECE6A;stroke-width:1;"/><line style="stroke:#9ECE6A;stroke-width:2;" x1="174.2036" x2="296.9692" y1="185.8438" y2="185.8438"/><text fill="#C0CAF5" font-family="sans-serif" font-size="15" lengthAdjust="spacing" textLength="104.7656" x="181.2036" y="180.3062">Gereksinimler</text></g><g class="message" data-participant-1="SA" data-participant-2="DEV"><polygon fill="#9ECE6A" points="426.2021,213.3047,436.2021,217.3047,426.2021,221.3047,430.2021,217.3047" style="stroke:#9ECE6A;stroke-width:1;"/><line style="stroke:#9ECE6A;stroke-width:2;" x1="302.9692" x2="432.2021" y1="217.3047" y2="217.3047"/><text fill="#C0CAF5" font-family="sans-serif" font-size="15" lengthAdjust="spacing" textLength="111.2329" x="309.9692" y="211.7671">Teknik tasar&#305;m</text></g><g class="message" data-participant-1="DEV" data-participant-2="QA"><polygon fill="#9ECE6A" points="522.7451,244.7656,532.7451,248.7656,522.7451,252.7656,526.7451,248.7656" style="stroke:#9ECE6A;stroke-width:1;"/><line style="stroke:#9ECE6A;stroke-width:2;" x1="438.2021" x2="528.7451" y1="248.7656" y2="248.7656"/><text fill="#C0CAF5" font-family="sans-serif" font-size="15" lengthAdjust="spacing" textLength="28.5352" x="445.2021" y="243.228">Kod</text></g><g class="message" data-participant-1="QA" data-participant-2="U"><polygon fill="#9ECE6A" points="48.7109,276.2266,38.7109,280.2266,48.7109,284.2266,44.7109,280.2266" style="stroke:#9ECE6A;stroke-width:1;"/><line style="stroke:#9ECE6A;stroke-width:2;" x1="42.7109" x2="533.7451" y1="280.2266" y2="280.2266"/><text fill="#C0CAF5" font-family="sans-serif" font-size="15" lengthAdjust="spacing" textLength="133.8574" x="54.7109" y="274.689">&#199;al&#305;&#351;an uygulama</text></g><path d="M129,297.2266 L129,354.2266 A4,4 0 0 0 133,358.2266 L575,358.2266 A4,4 0 0 0 579,354.2266 L579,303.2266 L569,293.2266 L133,293.2266 A4,4 0 0 0 129,297.2266" fill="#232634" style="stroke:#181818;stroke-width:0.5;"/><path d="M569,293.2266 L569,301.2266 A2,2 0 0 0 571,303.2266 L579,303.2266 L569,293.2266" fill="#232634" style="stroke:#181818;stroke-width:0.5;"/><text fill="#E6E9EF" font-family="sans-serif" font-size="16" font-weight="bold" lengthAdjust="spacing" textLength="125.0156" x="210.8333" y="313.0781">Geri besleme:</text><text fill="#E6E9EF" font-family="sans-serif" font-size="16" lengthAdjust="spacing" textLength="147.5313" x="340.9348" y="313.0781">QA "d&#252;zelt" derse,</text><text fill="#E6E9EF" font-family="sans-serif" font-size="16" lengthAdjust="spacing" textLength="237.7344" x="210.8333" y="331.7031">pipeline ilgili ajana geri d&#246;ner</text><text fill="#E6E9EF" font-family="sans-serif" font-size="16" lengthAdjust="spacing" textLength="231.2813" x="210.8333" y="350.3281">(kod &#8804;2 tur, tasar&#305;m &#8804;1 tur).</text><!--SRC=[ZLHDJrf15DtFhxYXYsg2g4_5ZnYJ4K4RqLIHhjmClClpzWqpTDw0aQP9TwRxxjtq3xXnnUxX7_6NT8OFUIXDkc31EMVcd3bmxqVW6542Bpz_mmb5DojLxA646dxheceY7968Z6Z3Klsi2a5XQvbzX6Cjv1xS2Qc6Z_sc0A7S9nu-FZyKe2I5eHOrXIMjLWtsg7-d5LYCGMah2embCQcEy7SsH3EEZEwgiAIbDl1XdQyV1iMC8iIMw4fRqSgUYpP2xfEoQF9mWhA7rhdaWHiIChVupEJQSh6yMwuibjIeZx2UzKnkHAXlIKNG4ZB133E9QXGQsCa-99cszPs12sJqxSHvjrmg5_aKp4GghPLuPIjBZ8EyGbStr8mL9Wa43gfI2wkay52R4CtaZctEWyfsbdtRPt0OL3RNdEApCAujwWXb_q-qqEUTO3vaXdvV_ZjwMhnxRzDgy-zOOpeRgBp6AyMTARN8wvMOkPnhkw2WZQ2uiJbbvnwzSSHBVC8iifZYOuTDzeCnIrOYx3SEPYFrTexsLni7Z0aV3t9dwU3vmVsVAGSYWVhhmpgpfY1tZ0RZX1IrhnLNGb9Yn_fBFYzCxzEdVZfmiZDg2pDy7Abg_Errafmf6OUC14VbB_EAK-TXyLeTfuEUZpvINN36wh1ou5nX3oeKau6bK0yVX8IGv39pk6DhdfqbbcXORKGu5yTSOQme1YiIdw_DFEh82t_gL8ViOgIjks_flP1-eGW5tRkeAqLRCEOM28BkkUcxv7b_QlRxkTATBK434ubjtFCzUqKkJ0Tzb3RdPjuac7VI3dLS1mg1P4IIG7pr-olofyFqoSssqop5EeINNty2i5stRgQ1FRJkeUK2GnNwZORiBm00]--></g></svg>